<svg xmlns="http://www.w3.org/2000/svg" width="21.232" height="19.116" viewBox="0 0 21.232 19.116">
  <g id="Group_604" data-name="Group 604" transform="translate(-586.5 -520.5)">
    <path id="Path_445" d="M11.314,0,7.048,3.434a2.223,2.223,0,0,1-2.746,0L0,0" transform="translate(591.5 527.061)" fill="none" stroke="#00183c" stroke-linecap="round" stroke-linejoin="round" stroke-miterlimit="10" stroke-width="2"/>
    <path id="Rectangle_511" d="M4.888,0h9.428A4.957,4.957,0,0,1,17.9,1.59a5.017,5.017,0,0,1,1.326,3.7v6.528a5.017,5.017,0,0,1-1.326,3.7,4.957,4.957,0,0,1-3.58,1.59H4.888C1.968,17.116,0,14.741,0,11.822V5.294C0,2.375,1.968,0,4.888,0Z" transform="translate(587.5 521.5)" fill="none" stroke="#00183c" stroke-linecap="round" stroke-linejoin="round" stroke-miterlimit="10" stroke-width="2"/>
  </g>
</svg>
