<?xml version="1.0" encoding="utf-8"?>
<!-- Svg Vector Icons : http://www.onlinewebfonts.com/icon -->
<!DOCTYPE svg PUBLIC "-//W3C//DTD SVG 1.1//EN" "http://www.w3.org/Graphics/SVG/1.1/DTD/svg11.dtd">
<svg version="1.1" xmlns="http://www.w3.org/2000/svg" xmlns:xlink="http://www.w3.org/1999/xlink" x="0px" y="0px" viewBox="0 0 1000 1000" enable-background="new 0 0 1000 1000" xml:space="preserve">
<metadata> Svg Vector Icons : http://www.onlinewebfonts.com/icon </metadata>
<g><g transform="translate(0.000000,390.000000) scale(0.100000,-0.100000)"><path d="M3071.3,2613.7c-30.6-9.6-526.8-377.3-1101.4-817.9L925.9,997L519.8,192.5C297.6-250,109.9-638.8,104.2-671.4C79.3-794,169.3-899.3,291.9-895.5c34.5,1.9,172.4,57.5,314.1,128.3c137.9,69,256.7,126.4,262.4,126.4c3.8,0,11.5-919.4,13.4-2041.9l5.7-2041.9l51.7-44.1c28.7-24.9,90-49.8,134.1-57.5c46-5.7,1402.1-9.6,3013.1-5.7c2614.6,5.7,2934.5,9.6,2972.9,36.4c61.3,42.1,1614.8,1990.2,1645.4,2061.1c21.1,49.8,26.8,250.9,26.8,1005.6v944.3l528.7,526.8C9829.1,307.4,9900,389.8,9900,470.3c0,36.4-206.9,398.4-613,1074.6c-501.9,839-624.4,1028.6-674.3,1057.4c-59.4,30.6-226,32.6-2773.6,30.6C4214.8,2632.8,3105.7,2623.3,3071.3,2613.7z M7467.3,1648.3l-584.2-584.2l-2603.2,3.8l-2605.1,5.7l756.6,578.5l754.7,580.4h2432.7h2432.7L7467.3,1648.3z M8978.7,1293.9L9457.5,499L8821.6-137c-350.5-350.5-639.8-637.9-645.5-637.9c-13.4,0-957.8,1576.4-957.8,1599.4c0,24.9,1250.8,1275.7,1268.1,1270C8495.9,2090.8,8716.2,1730.6,8978.7,1293.9z M6758.6-1885.8v-2547.6H4009.9H1261.1v1787.2c0,980.7,5.7,2128.1,13.4,2547.6l11.5,760.5h2737.3h2735.3V-1885.8z M7597.6-585.2c212.6-354.4,398.4-655.1,413.8-666.6c15.3-13.4,61.3-28.7,101.5-34.5c57.5-7.7,88.1,1.9,145.6,40.2l70.9,47.9v-703v-703l-567-708.7c-310.3-388.8-574.6-716.4-584.2-726c-9.6-11.5-17.2,794.9-17.2,2076.4c0,1754.6,3.8,2089.8,24.9,2059.2C7201.1,75.7,7385-230.8,7597.6-585.2z M878-91c0-97.7-1.9-103.4-67-134.1c-36.4-17.2-67-28.7-67-23c0,13.4,122.6,258.6,128.3,258.6C876.1,10.5,878-35.4,878-91z"/><path d="M2952.5-142.7c-109.2-44.1-139.8-218.4-53.6-306.5l47.9-47.9h1070.8c1022.9,0,1072.7,1.9,1111,36.4c90,82.4,61.3,266.3-47.9,316.1C5023.1-119.7,3017.6-117.8,2952.5-142.7z"/></g></g>
</svg>